<svg xmlns="http://www.w3.org/2000/svg" xmlns:xlink="http://www.w3.org/1999/xlink" xmlns:serif="http://www.serif.com/" viewBox="0 0 24 30" version="1.1" xml:space="preserve" style="" x="0px" y="0px" fill-rule="evenodd" clip-rule="evenodd" stroke-linejoin="round" stroke-miterlimit="2"><g><g><path d="M19.5,6.91c0,-0.133 -0.053,-0.26 -0.146,-0.354l-5,-5c-0.094,-0.093 -0.221,-0.146 -0.354,-0.146l-9,-0c-0.276,-0 -0.5,0.224 -0.5,0.5l0,20c0,0.276 0.224,0.5 0.5,0.5l14,-0c0.276,-0 0.5,-0.224 0.5,-0.5l0,-15Zm-1,0.207l0,14.293c0,-0 -13,-0 -13,-0c0,-0 0,-19 0,-19c-0,-0 8.293,-0 8.293,-0l4.707,4.707Z"/><path d="M19,7.41c0.202,-0 0.385,-0.122 0.462,-0.309c0.077,-0.187 0.035,-0.402 -0.108,-0.545l-5,-5c-0.143,-0.143 -0.359,-0.186 -0.545,-0.108c-0.187,0.077 -0.309,0.26 -0.309,0.462l0,5c0,0.276 0.224,0.5 0.5,0.5l5,-0Zm-1.207,-1l-3.293,-0c0,-0 0,-3.293 0,-3.293l3.293,3.293Z"/></g></g><text x="0" y="39" fill="#000000" font-size="5px" font-weight="bold" font-family="'Helvetica Neue', Helvetica, Arial-Unicode, Arial, Sans-serif">Created by Rolas Design</text><text x="0" y="44" fill="#000000" font-size="5px" font-weight="bold" font-family="'Helvetica Neue', Helvetica, Arial-Unicode, Arial, Sans-serif">from the Noun Project</text></svg>